# xmcd CD database file
# Copyright (C) 1996 Ti Kan
#
# Track frame offsets:
# 	150
# 	14405
# 	27060
# 	38405
# 	50995
# 	70125
# 	86427
# 	106207
# 	119775
# 	137372
# 	155772
#
# Disc length: 2278 seconds
#
# Revision: 1
# Processed by: cddbd v1.4b41PL1 Copyright (c) Steve Scherf et al.
# Submitted via: DiscPlay 3.4.1
#
DISCID=8d08e40b
DTITLE=Honndalen Soul and Funkarlag - Bak ei hes
DYEAR=1900
DGENRE=
TTITLE0=Siloen min
TTITLE1=Contry-festival i Otterdal
TTITLE2=Landbruksmann i Noreg
TTITLE3=Storoksen Ingvald
TTITLE4=Større enn han far
TTITLE5=Den store garden
TTITLE6=Bak ei hes
TTITLE7=Mannjen oppi grenda
TTITLE8=Sett deg i armkroken min
TTITLE9=Landbruksmedley
TTITLE10=Kyr og andre dyr
EXTD=
EXTT0=
EXTT1=
EXTT2=
EXTT3=
EXTT4=
EXTT5=
EXTT6=
EXTT7=
EXTT8=
EXTT9=
EXTT10=
PLAYORDER=
